<svg width="89" height="34" viewBox="0 0 89 34" fill="none" xmlns="http://www.w3.org/2000/svg">
<path d="M29.048 8.248L24.368 25H20.408L17.264 13.072L13.976 25L10.04 25.024L5.528 8.248H9.128L12.08 21.256L15.488 8.248H19.232L22.448 21.184L25.424 8.248H29.048ZM30.3779 18.304C30.3779 16.96 30.6419 15.768 31.1699 14.728C31.7139 13.688 32.4419 12.888 33.3539 12.328C34.2819 11.768 35.3139 11.488 36.4499 11.488C37.4419 11.488 38.3059 11.688 39.0419 12.088C39.7939 12.488 40.3939 12.992 40.8419 13.6V11.704H44.2259V25H40.8419V23.056C40.4099 23.68 39.8099 24.2 39.0419 24.616C38.2899 25.016 37.4179 25.216 36.4259 25.216C35.3059 25.216 34.2819 24.928 33.3539 24.352C32.4419 23.776 31.7139 22.968 31.1699 21.928C30.6419 20.872 30.3779 19.664 30.3779 18.304ZM40.8419 18.352C40.8419 17.536 40.6819 16.84 40.3619 16.264C40.0419 15.672 39.6099 15.224 39.0659 14.92C38.5219 14.6 37.9379 14.44 37.3139 14.44C36.6899 14.44 36.1139 14.592 35.5859 14.896C35.0579 15.2 34.6259 15.648 34.2899 16.24C33.9699 16.816 33.8099 17.504 33.8099 18.304C33.8099 19.104 33.9699 19.808 34.2899 20.416C34.6259 21.008 35.0579 21.464 35.5859 21.784C36.1299 22.104 36.7059 22.264 37.3139 22.264C37.9379 22.264 38.5219 22.112 39.0659 21.808C39.6099 21.488 40.0419 21.04 40.3619 20.464C40.6819 19.872 40.8419 19.168 40.8419 18.352ZM50.8676 7.24V25H47.5076V7.24H50.8676ZM57.5473 7.24V25H54.1873V7.24H57.5473ZM73.2269 18.064C73.2269 18.544 73.1949 18.976 73.1309 19.36H63.4109C63.4909 20.32 63.8269 21.072 64.4189 21.616C65.0109 22.16 65.7389 22.432 66.6029 22.432C67.8509 22.432 68.7389 21.896 69.2669 20.824H72.8909C72.5069 22.104 71.7709 23.16 70.6829 23.992C69.5949 24.808 68.2589 25.216 66.6749 25.216C65.3949 25.216 64.2429 24.936 63.2189 24.376C62.2109 23.8 61.4189 22.992 60.8429 21.952C60.2829 20.912 60.0029 19.712 60.0029 18.352C60.0029 16.976 60.2829 15.768 60.8429 14.728C61.4029 13.688 62.1869 12.888 63.1949 12.328C64.2029 11.768 65.3629 11.488 66.6749 11.488C67.9389 11.488 69.0669 11.76 70.0589 12.304C71.0669 12.848 71.8429 13.624 72.3869 14.632C72.9469 15.624 73.2269 16.768 73.2269 18.064ZM69.7469 17.104C69.7309 16.24 69.4189 15.552 68.8109 15.04C68.2029 14.512 67.4589 14.248 66.5789 14.248C65.7469 14.248 65.0429 14.504 64.4669 15.016C63.9069 15.512 63.5629 16.208 63.4349 17.104H69.7469ZM79.5914 14.464V20.896C79.5914 21.344 79.6954 21.672 79.9034 21.88C80.1274 22.072 80.4954 22.168 81.0074 22.168H82.5674V25H80.4554C77.6234 25 76.2074 23.624 76.2074 20.872V14.464H74.6234V11.704H76.2074V8.416H79.5914V11.704H82.5674V14.464H79.5914Z" fill="white"/>
</svg>
